
<svg xmlns="http://www.w3.org/2000/svg" version="1.1" xmlns:xlink="http://www.w3.org/1999/xlink" preserveAspectRatio="none" x="0px" y="0px" width="550px" height="400px" viewBox="0 0 550 400">
<defs>
<g id="SpaceSheep_01_0_Layer0_0_FILL">
<path fill="#FFD900" stroke="none" d="
M 142.25 389.8
Q 134.9 382.75 125.2 384.25 114.1 385.95 106.85 398.75
L 72.35 459.35 132.95 424.85
Q 146.45 417.15 148.15 406.3 149.65 396.85 142.25 389.8 Z"/>
</g>

<g id="SpaceSheep_01_0_Layer0_1_FILL">
<path fill="#FFF163" stroke="none" d="
M 142.25 389.75
Q 137.1 384.9 130.35 385.95 122.7 387.15 117.65 396
L 93.7 438.05 135.75 414.1
Q 145.15 408.75 146.3 401.2 147.35 394.65 142.25 389.75 Z"/>
</g>

<g id="SpaceSheep_01_0_Layer0_2_MEMBER_0_FILL">
<path fill="#FFD987" stroke="none" d="
M 161 352.7
Q 153.35 353.9 147 358.8 140.8 363.55 137.65 370.4 134.35 377.55 135.3 384.95 137.7 388 140.75 391.05 143.65 393.95 146.9 396.5 154.3 397.5 161.45 394.2 168.3 391 173.05 384.8 177.9 378.45 179.15 370.8 180.5 362.55 177.2 354.6 169.25 351.35 161 352.7 Z"/>
</g>

<g id="SpaceSheep_01_0_Layer0_2_MEMBER_1_FILL">
<path fill="#9CAB00" stroke="none" d="
M 212.35 319.45
Q 226.35 309.25 242.1 293.5 257.8 277.8 268.1 263.75 254.1 273.95 238.35 289.7 222.65 305.4 212.35 319.45 Z"/>
</g>

<g id="SpaceSheep_01_0_Layer0_2_MEMBER_2_FILL">
<path fill="#9CAB00" stroke="none" d="
M 154.6 396.4
Q 160.5 408.05 143.85 426.95
L 145.95 429 180.85 414.7 185.45 377.9 154.6 396.4 Z"/>
</g>

<g id="SpaceSheep_01_0_Layer0_2_MEMBER_3_FILL">
<path fill="#9CAB00" stroke="none" d="
M 102.8 385.9
L 104.9 387.95
Q 123.9 371.4 135.45 377.25
L 153.9 346.4 117.1 351 102.8 385.9 Z"/>
</g>

<g id="SpaceSheep_01_0_Layer0_2_MEMBER_4_FILL">
<path fill="#FF0000" stroke="none" d="
M 135.45 377.25
Q 139.35 382.95 144.1 387.7 149.05 392.6 154.6 396.4 170.05 394.85 186.95 384.25 203.2 374.1 216.45 358.5 230 342.5 236.45 325.45 243.35 307.05 240.25 291.6 224.8 288.5 206.4 295.4 189.35 301.85 173.4 315.4 157.75 328.65 147.6 344.85 137 361.8 135.45 377.25 Z"/>
</g>

<g id="SpaceSheep_01_0_Layer0_2_MEMBER_5_FILL">
<path fill="#FFCB00" stroke="none" d="
M 202.25 329.6
Q 191.8 319.15 184 307.25 170.15 316.7 158.9 329.6 167.2 342.6 178.2 353.6 189.2 364.6 202.2 372.9 215.15 361.65 224.55 347.8 212.4 339.85 202.25 329.6 Z"/>
</g>

<g id="SpaceSheep_01_0_Layer0_2_MEMBER_6_FILL">
<path fill="#9CAB00" stroke="none" d="
M 233.9 331.45
Q 238.65 321.1 240.3 311.2 242.1 300.75 240.25 291.6 222.15 287.95 200.35 297.9 205.65 308.8 214.35 317.5 222.95 326.1 233.9 331.45 Z"/>
</g>

<g id="SpaceSheep_01_0_Layer0_2_MEMBER_7_FILL">
<path fill="#9CAB4E" stroke="none" d="
M 210.8 338.15
Q 214.35 334.65 214.35 329.6 214.35 324.6 210.8 321.05 207.25 317.5 202.25 317.5 197.2 317.5 193.65 321.05 190.15 324.6 190.15 329.6 190.15 334.65 193.65 338.15 197.2 341.7 202.25 341.7 207.25 341.7 210.8 338.15 Z"/>
</g>

<g id="SpaceSheep_01_0_Layer0_2_MEMBER_8_FILL">
<path fill="#9CAB4E" stroke="none" d="
M 186.8 345.05
Q 183.25 341.5 178.25 341.5 173.2 341.5 169.65 345.05 166.15 348.6 166.15 353.6 166.15 358.65 169.65 362.15 173.2 365.7 178.25 365.7 183.25 365.7 186.8 362.15 190.35 358.65 190.35 353.6 190.35 348.6 186.8 345.05 Z"/>
</g>

<g id="SpaceSheep_01_0_Layer0_2_MEMBER_9_FILL">
<path fill="#9CAB00" stroke="none" d="
M 165.05 369.2
L 162.65 366.8 123.2 406.25 125.55 408.65 165.05 369.2 Z"/>
</g>

<g id="SpaceSheep_01_0_Layer0_2_MEMBER_10_MEMBER_0_FILL">
<path fill="#58D2D3" stroke="none" d="
M 204.45 337.95
Q 207.95 337 209.7 333.9 211.5 330.8 210.6 327.35 209.65 323.9 206.55 322.1 203.45 320.3 200 321.25 196.55 322.2 194.75 325.3 192.95 328.35 193.9 331.85 194.8 335.3 197.9 337.1 201 338.9 204.45 337.95 Z"/>
</g>

<g id="SpaceSheep_01_0_Layer0_2_MEMBER_10_MEMBER_1_FILL">
<path fill="#FFFFFF" stroke="none" d="
M 202.75 324.75
Q 205.45 324 207.9 325.3 206.6 323.6 204.6 322.9 202.5 322.15 200.4 322.75 197.55 323.5 196.1 326.05 194.6 328.6 195.35 331.45 196.15 334.45 198.95 335.9 198.15 334.9 197.75 333.45 196.95 330.6 198.45 328.05 199.9 325.5 202.75 324.75 Z"/>
</g>

<g id="SpaceSheep_01_0_Layer0_2_MEMBER_11_MEMBER_0_FILL">
<path fill="#58D2D3" stroke="none" d="
M 182.55 346.1
Q 179.45 344.3 176 345.25 172.55 346.2 170.75 349.3 168.95 352.4 169.85 355.85 170.8 359.3 173.9 361.1 177 362.9 180.45 361.95 183.9 361 185.7 357.95 187.5 354.85 186.55 351.35 185.65 347.9 182.55 346.1 Z"/>
</g>

<g id="SpaceSheep_01_0_Layer0_2_MEMBER_11_MEMBER_1_FILL">
<path fill="#FFFFFF" stroke="none" d="
M 176.4 346.75
Q 173.55 347.5 172.1 350.05 170.6 352.6 171.35 355.45 172.2 358.45 174.9 359.9 174 358.65 173.75 357.45 172.95 354.6 174.45 352.05 175.9 349.5 178.75 348.75 181.4 348 183.9 349.3 182.6 347.6 180.6 346.9 178.5 346.15 176.4 346.75 Z"/>
</g>

<g id="SpaceSheep_01_0_Layer0_2_MEMBER_12_FILL">
<path fill="#CDDD7A" stroke="none" d="
M 236.7 296.9
Q 236.7 296.2 236.15 295.65 235.6 295.15 234.9 295.15 234.15 295.2 233.65 295.7 233.15 296.2 233.15 296.95 233.15 297.65 233.65 298.15 234.2 298.7 234.9 298.7 235.65 298.7 236.15 298.15 236.7 297.65 236.7 296.9 Z"/>
</g>

<g id="SpaceSheep_01_0_Layer0_2_MEMBER_13_FILL">
<path fill="#CDDD7A" stroke="none" d="
M 229.2 301.05
Q 228.5 301 227.9 301.45 227.35 301.9 227.3 302.65 227.25 303.35 227.7 303.9 228.15 304.5 228.9 304.55 229.6 304.65 230.15 304.15 230.75 303.65 230.8 302.95 230.9 302.25 230.4 301.65 229.9 301.1 229.2 301.05 Z"/>
</g>

<g id="SpaceSheep_01_0_Layer0_2_MEMBER_14_FILL">
<path fill="#CDDD7A" stroke="none" d="
M 224.85 309.2
Q 225.1 308.5 224.75 307.9 224.4 307.25 223.7 307 223.05 306.8 222.4 307.1 221.75 307.45 221.5 308.1 221.3 308.8 221.6 309.45 221.9 310.15 222.6 310.35 223.3 310.6 223.95 310.25 224.65 309.9 224.85 309.2 Z"/>
</g>

<g id="SpaceSheep_01_0_Layer0_2_MEMBER_15_FILL">
<path fill="#CDDD7A" stroke="none" d="
M 218.55 313.3
Q 218.05 312.8 217.3 312.8 216.6 312.8 216.05 313.3 215.55 313.8 215.55 314.55 215.55 315.25 216.05 315.75 216.6 316.3 217.3 316.3 218.05 316.3 218.55 315.75 219.1 315.25 219.1 314.55 219.1 313.8 218.55 313.3 Z"/>
</g>
</defs>

<g transform="matrix( 1, 0, 0, 1, 0,0) ">
<g transform="matrix( 0.7291412353515625, 0.68194580078125, -0.68194580078125, 0.7291412353515625, 122.45,-380.7) ">
<use xlink:href="#SpaceSheep_01_0_Layer0_0_FILL"/>
</g>

<g transform="matrix( 0.7291412353515625, 0.68194580078125, -0.68194580078125, 0.7291412353515625, 122.45,-380.7) ">
<use xlink:href="#SpaceSheep_01_0_Layer0_1_FILL"/>
</g>

<g transform="matrix( 0.7291107177734375, 0.6819305419921875, -0.6819305419921875, 0.7291107177734375, 122.45,-380.7) ">
<use xlink:href="#SpaceSheep_01_0_Layer0_2_MEMBER_0_FILL"/>
</g>

<g transform="matrix( 0.7291107177734375, 0.6819305419921875, -0.6819305419921875, 0.7291107177734375, 122.45,-380.7) ">
<use xlink:href="#SpaceSheep_01_0_Layer0_2_MEMBER_1_FILL"/>
</g>

<g transform="matrix( 0.7291107177734375, 0.6819305419921875, -0.6819305419921875, 0.7291107177734375, 122.45,-380.7) ">
<use xlink:href="#SpaceSheep_01_0_Layer0_2_MEMBER_2_FILL"/>
</g>

<g transform="matrix( 0.7291107177734375, 0.6819305419921875, -0.6819305419921875, 0.7291107177734375, 122.45,-380.7) ">
<use xlink:href="#SpaceSheep_01_0_Layer0_2_MEMBER_3_FILL"/>
</g>

<g transform="matrix( 0.7291107177734375, 0.6819305419921875, -0.6819305419921875, 0.7291107177734375, 122.45,-380.7) ">
<use xlink:href="#SpaceSheep_01_0_Layer0_2_MEMBER_4_FILL"/>
</g>

<g transform="matrix( 0.7291107177734375, 0.6819305419921875, -0.6819305419921875, 0.7291107177734375, 122.45,-380.7) ">
<use xlink:href="#SpaceSheep_01_0_Layer0_2_MEMBER_5_FILL"/>
</g>

<g transform="matrix( 0.7291107177734375, 0.6819305419921875, -0.6819305419921875, 0.7291107177734375, 122.45,-380.7) ">
<use xlink:href="#SpaceSheep_01_0_Layer0_2_MEMBER_6_FILL"/>
</g>

<g transform="matrix( 0.7291107177734375, 0.6819305419921875, -0.6819305419921875, 0.7291107177734375, 122.45,-380.7) ">
<use xlink:href="#SpaceSheep_01_0_Layer0_2_MEMBER_7_FILL"/>
</g>

<g transform="matrix( 0.7291107177734375, 0.6819305419921875, -0.6819305419921875, 0.7291107177734375, 122.45,-380.7) ">
<use xlink:href="#SpaceSheep_01_0_Layer0_2_MEMBER_8_FILL"/>
</g>

<g transform="matrix( 0.7291107177734375, 0.6819305419921875, -0.6819305419921875, 0.7291107177734375, 122.45,-380.7) ">
<use xlink:href="#SpaceSheep_01_0_Layer0_2_MEMBER_9_FILL"/>
</g>

<g transform="matrix( 0.7291107177734375, 0.6819305419921875, -0.6819305419921875, 0.7291107177734375, 122.45,-380.7) ">
<use xlink:href="#SpaceSheep_01_0_Layer0_2_MEMBER_10_MEMBER_0_FILL"/>
</g>

<g transform="matrix( 0.7291107177734375, 0.6819305419921875, -0.6819305419921875, 0.7291107177734375, 122.45,-380.7) ">
<use xlink:href="#SpaceSheep_01_0_Layer0_2_MEMBER_10_MEMBER_1_FILL"/>
</g>

<g transform="matrix( 0.7291107177734375, 0.6819305419921875, -0.6819305419921875, 0.7291107177734375, 122.45,-380.7) ">
<use xlink:href="#SpaceSheep_01_0_Layer0_2_MEMBER_11_MEMBER_0_FILL"/>
</g>

<g transform="matrix( 0.7291107177734375, 0.6819305419921875, -0.6819305419921875, 0.7291107177734375, 122.45,-380.7) ">
<use xlink:href="#SpaceSheep_01_0_Layer0_2_MEMBER_11_MEMBER_1_FILL"/>
</g>

<g transform="matrix( 0.7291107177734375, 0.6819305419921875, -0.6819305419921875, 0.7291107177734375, 122.45,-380.7) ">
<use xlink:href="#SpaceSheep_01_0_Layer0_2_MEMBER_12_FILL"/>
</g>

<g transform="matrix( 0.7291107177734375, 0.6819305419921875, -0.6819305419921875, 0.7291107177734375, 122.45,-380.7) ">
<use xlink:href="#SpaceSheep_01_0_Layer0_2_MEMBER_13_FILL"/>
</g>

<g transform="matrix( 0.7291107177734375, 0.6819305419921875, -0.6819305419921875, 0.7291107177734375, 122.45,-380.7) ">
<use xlink:href="#SpaceSheep_01_0_Layer0_2_MEMBER_14_FILL"/>
</g>

<g transform="matrix( 0.7291107177734375, 0.6819305419921875, -0.6819305419921875, 0.7291107177734375, 122.45,-380.7) ">
<use xlink:href="#SpaceSheep_01_0_Layer0_2_MEMBER_15_FILL"/>
</g>
</g>
</svg>
